<?xml version="1.0" standalone="no"?>
<!DOCTYPE svg PUBLIC "-//W3C//DTD SVG 20010904//EN"
 "http://www.w3.org/TR/2001/REC-SVG-20010904/DTD/svg10.dtd">
<svg version="1.0" xmlns="http://www.w3.org/2000/svg"
 width="1024.000000pt" height="1024.000000pt" viewBox="0 0 1024.000000 1024.000000"
 preserveAspectRatio="xMidYMid meet">
<metadata>
Created by potrace 1.16, written by Peter Selinger 2001-2019
</metadata>
<g transform="translate(0.000000,1024.000000) scale(0.100000,-0.100000)"
fill="#000000" stroke="none">
<path d="M4780 9994 c-19 -2 -87 -9 -150 -15 -987 -91 -1962 -513 -2721 -1177
-967 -845 -1554 -2012 -1659 -3297 -13 -155 -13 -615 0 -770 96 -1173 588
-2239 1416 -3069 759 -762 1769 -1259 2824 -1390 226 -28 362 -36 630 -36 446
0 779 40 1190 141 1733 428 3118 1814 3549 3549 101 409 141 744 141 1190 0
565 -74 1031 -245 1545 -507 1522 -1741 2708 -3279 3149 -263 76 -516 126
-816 162 -127 15 -784 29 -880 18z m166 -4860 c-4 -1972 -10 -3592 -13 -3600
-8 -21 -440 -19 -600 1 -713 93 -1352 375 -1903 841 -91 77 -332 320 -416 419
-74 88 -194 249 -249 335 -27 41 -63 98 -81 125 -95 146 -246 474 -331 720
-203 588 -240 1334 -97 1942 79 339 178 602 335 898 99 185 162 286 273 437
541 733 1318 1230 2201 1407 248 50 339 59 624 60 l264 1 -7 -3586z m959 3553
c361 -65 673 -167 986 -321 872 -427 1541 -1199 1845 -2124 65 -201 106 -376
140 -602 22 -151 24 -195 24 -520 0 -325 -2 -369 -24 -520 -86 -580 -295
-1099 -634 -1579 -489 -691 -1241 -1204 -2068 -1411 -292 -73 -369 -82 -729
-87 -193 -2 -325 0 -317 5 10 7 13 48 13 169 -1 184 -7 173 92 173 44 0 58 3
47 10 -8 5 -25 10 -38 10 -13 0 -21 4 -18 9 11 17 -14 6445 -25 6457 -6 7 -24
14 -41 16 l-30 3 1 167 c2 127 -1 167 -11 172 -7 3 136 4 317 2 303 -3 342 -5
470 -29z"/>
<path d="M4360 8335 c-285 -50 -568 -140 -825 -260 -205 -97 -446 -247 -640
-401 -138 -109 -416 -386 -524 -524 -460 -582 -705 -1289 -705 -2030 0 -741
245 -1448 705 -2030 108 -138 386 -415 524 -524 445 -352 960 -581 1495 -665
144 -23 313 -36 265 -21 l-30 9 3 916 2 915 -26 10 c-16 6 -333 10 -837 10
-884 1 -914 2 -982 54 -78 60 -111 158 -86 254 14 48 60 106 105 129 77 40
119 42 969 43 544 0 825 3 838 10 18 10 19 24 19 321 l0 309 -26 10 c-16 6
-337 10 -842 10 -946 1 -914 -2 -1006 79 -60 54 -81 155 -51 242 29 80 94 130
196 148 46 8 311 11 872 11 499 0 815 4 831 10 l26 10 0 309 c0 237 -3 312
-12 318 -7 4 -395 11 -863 14 -649 4 -862 8 -899 18 -66 18 -140 89 -156 151
-26 98 6 195 85 256 68 52 98 53 982 54 502 0 821 4 837 10 l26 10 0 914 c0
824 -2 914 -16 920 -29 11 -119 5 -254 -19z"/>
<path d="M5530 7430 l0 -930 868 0 c953 0 918 2 994 -60 52 -43 78 -103 78
-178 0 -77 -17 -119 -68 -170 -75 -75 -30 -72 -1004 -72 l-868 0 0 -330 0
-330 868 0 c953 0 919 2 994 -60 105 -86 105 -274 0 -360 -75 -62 -41 -60
-994 -60 l-868 0 0 -330 0 -330 868 0 c974 0 929 3 1004 -72 51 -51 68 -93 68
-170 0 -75 -26 -135 -78 -178 -76 -62 -41 -60 -994 -60 l-868 0 0 -930 0 -930
34 0 c117 0 454 78 671 155 611 217 1126 595 1521 1114 264 347 454 745 560
1171 133 535 133 1065 0 1600 -309 1245 -1342 2206 -2599 2420 -66 11 -134 20
-153 20 l-34 0 0 -930z"/>
</g>
</svg>
